<?xml version="1.0" encoding="UTF-8"?>
<svg id="Capa_2" data-name="Capa 2" xmlns="http://www.w3.org/2000/svg" viewBox="0 0 1049.08 168.37">
  <defs>
    <style>
      .cls-1 {
        fill: #e20034;
      }

      .cls-1, .cls-2 {
        stroke-width: 0px;
      }

      .cls-2 {
        fill: #fcfdf8;
      }
    </style>
  </defs>
  <g id="Capa_7" data-name="Capa 7">
    <g>
      <path class="cls-2" d="M34.56,168.04l-8.3-12.53c-1.17.07-2.07.11-2.69.11h-10.55v12.42h-3.79v-38.42h14.35c4.8,0,8.51,1.11,11.13,3.33,2.62,2.22,3.93,5.36,3.93,9.43,0,3.19-.77,5.84-2.31,7.97-1.54,2.12-3.74,3.61-6.59,4.45l9.23,13.25h-4.4ZM23.57,152.21c3.66,0,6.48-.83,8.46-2.5,1.98-1.67,2.97-4.08,2.97-7.23s-.99-5.42-2.97-7.04c-1.98-1.61-4.8-2.42-8.46-2.42h-10.55v19.18h10.55Z"/>
      <path class="cls-2" d="M48.96,129.62h25.72v3.41h-21.93v13.74h19.62v3.41h-19.62v14.46h22.64v3.41h-26.44v-38.42Z"/>
      <path class="cls-2" d="M110.16,132.15c3.02,1.69,5.4,4,7.15,6.95,1.74,2.95,2.61,6.2,2.61,9.76s-.87,6.8-2.61,9.73c-1.74,2.93-4.13,5.24-7.17,6.92-3.04,1.69-6.41,2.53-10.11,2.53h-15.33v-38.42h15.44c3.66,0,7.01.84,10.03,2.53ZM108.21,162.55c2.42-1.39,4.33-3.29,5.74-5.69,1.41-2.4,2.12-5.07,2.12-8s-.71-5.61-2.14-8.02c-1.43-2.42-3.36-4.32-5.8-5.72-2.44-1.39-5.12-2.09-8.05-2.09h-11.6v31.6h11.76c2.89,0,5.55-.7,7.97-2.09Z"/>
      <path class="cls-2" d="M156.03,168.04l-4.56-10.22h-21.33l-4.51,10.22h-4.07l17.31-38.42h3.96l17.31,38.42h-4.12ZM131.62,154.41h18.36l-9.23-20.78-9.12,20.78Z"/>
      <path class="cls-2" d="M188.12,133.91c-2.02-.84-4.1-1.26-6.27-1.26-2.97,0-5.69.71-8.16,2.14-2.47,1.43-4.43,3.38-5.88,5.85-1.45,2.47-2.17,5.18-2.17,8.11s.72,5.62,2.17,8.08c1.45,2.46,3.41,4.41,5.88,5.85,2.47,1.45,5.19,2.17,8.16,2.17,2.12,0,4.2-.41,6.21-1.24,2.01-.82,3.81-1.97,5.39-3.43l2.31,2.47c-1.91,1.76-4.09,3.15-6.54,4.18-2.46,1.03-4.97,1.54-7.53,1.54-3.63,0-6.96-.88-10-2.64s-5.45-4.14-7.23-7.14c-1.78-3-2.67-6.28-2.67-9.84s.9-6.82,2.69-9.78c1.79-2.97,4.22-5.32,7.28-7.06,3.06-1.74,6.4-2.61,10.03-2.61,2.6,0,5.11.49,7.53,1.46s4.54,2.32,6.38,4.04l-2.25,2.64c-1.54-1.5-3.32-2.67-5.33-3.52Z"/>
      <path class="cls-2" d="M225.66,133.91c-2.02-.84-4.1-1.26-6.27-1.26-2.97,0-5.69.71-8.16,2.14-2.47,1.43-4.43,3.38-5.88,5.85-1.45,2.47-2.17,5.18-2.17,8.11s.72,5.62,2.17,8.08c1.45,2.46,3.41,4.41,5.88,5.85,2.47,1.45,5.19,2.17,8.16,2.17,2.12,0,4.2-.41,6.21-1.24,2.01-.82,3.81-1.97,5.39-3.43l2.31,2.47c-1.91,1.76-4.09,3.15-6.54,4.18-2.45,1.03-4.97,1.54-7.53,1.54-3.63,0-6.96-.88-10-2.64-3.04-1.76-5.45-4.14-7.23-7.14-1.78-3-2.67-6.28-2.67-9.84s.9-6.82,2.69-9.78c1.79-2.97,4.22-5.32,7.28-7.06,3.06-1.74,6.4-2.61,10.03-2.61,2.6,0,5.11.49,7.53,1.46,2.42.97,4.54,2.32,6.38,4.04l-2.25,2.64c-1.54-1.5-3.32-2.67-5.33-3.52Z"/>
      <path class="cls-2" d="M241.6,129.62h3.79v38.42h-3.79v-38.42Z"/>
      <path class="cls-2" d="M283.89,131.91c3.06,1.74,5.49,4.09,7.28,7.06,1.79,2.97,2.69,6.23,2.69,9.78s-.9,6.83-2.69,9.84c-1.79,3-4.22,5.39-7.28,7.14-3.06,1.76-6.42,2.64-10.08,2.64s-7.03-.88-10.09-2.64c-3.06-1.76-5.49-4.14-7.28-7.14-1.8-3-2.69-6.28-2.69-9.84s.9-6.82,2.69-9.78c1.8-2.97,4.22-5.32,7.28-7.06,3.06-1.74,6.42-2.61,10.09-2.61s7.03.87,10.08,2.61ZM265.73,134.85c-2.49,1.43-4.47,3.37-5.94,5.83-1.47,2.46-2.2,5.15-2.2,8.08s.73,5.64,2.2,8.13c1.46,2.49,3.44,4.46,5.94,5.91,2.49,1.45,5.2,2.17,8.13,2.17s5.58-.72,8.05-2.17c2.47-1.45,4.44-3.42,5.91-5.91,1.47-2.49,2.2-5.2,2.2-8.13s-.73-5.62-2.2-8.08c-1.47-2.45-3.43-4.4-5.91-5.83-2.47-1.43-5.16-2.14-8.05-2.14s-5.64.71-8.13,2.14ZM277.87,118.74l3.79,1.65-6.93,5.5-3.3-.38,6.43-6.76Z"/>
      <path class="cls-2" d="M330.09,129.62h3.74v38.42h-4.01l-23.8-32.54v32.54h-3.79v-38.42h4.01l23.85,32.54v-32.54Z"/>
      <path class="cls-2" d="M391.31,129.62h25.72v3.41h-21.93v13.74h19.62v3.41h-19.62v14.46h22.64v3.41h-26.44v-38.42Z"/>
      <path class="cls-2" d="M452.51,132.15c3.02,1.69,5.4,4,7.14,6.95,1.74,2.95,2.61,6.2,2.61,9.76s-.87,6.8-2.61,9.73c-1.74,2.93-4.13,5.24-7.17,6.92-3.04,1.69-6.41,2.53-10.11,2.53h-15.33v-38.42h15.44c3.66,0,7.01.84,10.03,2.53ZM450.56,162.55c2.42-1.39,4.33-3.29,5.74-5.69,1.41-2.4,2.12-5.07,2.12-8s-.71-5.61-2.14-8.02c-1.43-2.42-3.36-4.32-5.8-5.72-2.44-1.39-5.12-2.09-8.05-2.09h-11.6v31.6h11.76c2.89,0,5.55-.7,7.97-2.09Z"/>
      <path class="cls-2" d="M470.62,129.62h3.79v38.42h-3.79v-38.42Z"/>
      <path class="cls-2" d="M509.09,133.91c-2.02-.84-4.1-1.26-6.27-1.26-2.97,0-5.69.71-8.16,2.14-2.47,1.43-4.43,3.38-5.88,5.85-1.45,2.47-2.17,5.18-2.17,8.11s.72,5.62,2.17,8.08c1.45,2.46,3.41,4.41,5.88,5.85,2.47,1.45,5.19,2.17,8.16,2.17,2.12,0,4.2-.41,6.21-1.24,2.01-.82,3.81-1.97,5.39-3.43l2.31,2.47c-1.91,1.76-4.09,3.15-6.54,4.18-2.46,1.03-4.96,1.54-7.53,1.54-3.63,0-6.96-.88-10-2.64-3.04-1.76-5.45-4.14-7.23-7.14-1.78-3-2.67-6.28-2.67-9.84s.9-6.82,2.69-9.78c1.79-2.97,4.22-5.32,7.28-7.06,3.06-1.74,6.4-2.61,10.03-2.61,2.6,0,5.11.49,7.53,1.46,2.42.97,4.54,2.32,6.38,4.04l-2.25,2.64c-1.54-1.5-3.32-2.67-5.33-3.52Z"/>
      <path class="cls-2" d="M525.03,129.62h3.79v38.42h-3.79v-38.42Z"/>
      <path class="cls-2" d="M567.32,131.91c3.06,1.74,5.49,4.09,7.28,7.06,1.79,2.97,2.69,6.23,2.69,9.78s-.9,6.83-2.69,9.84c-1.8,3-4.22,5.39-7.28,7.14-3.06,1.76-6.42,2.64-10.09,2.64s-7.03-.88-10.08-2.64c-3.06-1.76-5.49-4.14-7.28-7.14-1.8-3-2.69-6.28-2.69-9.84s.9-6.82,2.69-9.78c1.79-2.97,4.22-5.32,7.28-7.06,3.06-1.74,6.42-2.61,10.08-2.61s7.03.87,10.09,2.61ZM549.16,134.85c-2.49,1.43-4.47,3.37-5.94,5.83-1.47,2.46-2.2,5.15-2.2,8.08s.73,5.64,2.2,8.13c1.46,2.49,3.44,4.46,5.94,5.91,2.49,1.45,5.2,2.17,8.13,2.17s5.58-.72,8.05-2.17c2.47-1.45,4.44-3.42,5.91-5.91,1.46-2.49,2.2-5.2,2.2-8.13s-.73-5.62-2.2-8.08c-1.47-2.45-3.44-4.4-5.91-5.83-2.47-1.43-5.16-2.14-8.05-2.14s-5.64.71-8.13,2.14ZM561.3,118.74l3.79,1.65-6.92,5.5-3.3-.38,6.43-6.76Z"/>
      <path class="cls-2" d="M613.52,129.62h3.74v38.42h-4.01l-23.8-32.54v32.54h-3.79v-38.42h4.01l23.85,32.54v-32.54Z"/>
      <path class="cls-2" d="M697.33,133.91c-2.02-.84-4.1-1.26-6.27-1.26-2.97,0-5.69.71-8.16,2.14-2.47,1.43-4.43,3.38-5.88,5.85-1.45,2.47-2.17,5.18-2.17,8.11s.72,5.62,2.17,8.08c1.45,2.46,3.41,4.41,5.88,5.85,2.47,1.45,5.19,2.17,8.16,2.17,2.12,0,4.2-.41,6.21-1.24,2.01-.82,3.81-1.97,5.39-3.43l2.31,2.47c-1.91,1.76-4.09,3.15-6.54,4.18-2.46,1.03-4.97,1.54-7.53,1.54-3.63,0-6.96-.88-10-2.64-3.04-1.76-5.45-4.14-7.23-7.14-1.78-3-2.67-6.28-2.67-9.84s.9-6.82,2.69-9.78c1.79-2.97,4.22-5.32,7.28-7.06,3.06-1.74,6.4-2.61,10.03-2.61,2.6,0,5.11.49,7.53,1.46,2.42.97,4.54,2.32,6.38,4.04l-2.25,2.64c-1.54-1.5-3.32-2.67-5.33-3.52Z"/>
      <path class="cls-2" d="M738.69,131.91c3.06,1.74,5.49,4.09,7.28,7.06,1.79,2.97,2.69,6.23,2.69,9.78s-.9,6.83-2.69,9.84c-1.8,3-4.22,5.39-7.28,7.14-3.06,1.76-6.42,2.64-10.09,2.64s-7.03-.88-10.08-2.64c-3.06-1.76-5.49-4.14-7.28-7.14-1.8-3-2.69-6.28-2.69-9.84s.9-6.82,2.69-9.78c1.79-2.97,4.22-5.32,7.28-7.06,3.06-1.74,6.42-2.61,10.08-2.61s7.03.87,10.09,2.61ZM720.53,134.85c-2.49,1.43-4.47,3.37-5.94,5.83-1.47,2.46-2.2,5.15-2.2,8.08s.73,5.64,2.2,8.13c1.46,2.49,3.44,4.46,5.94,5.91,2.49,1.45,5.2,2.17,8.13,2.17s5.58-.72,8.05-2.17c2.47-1.45,4.44-3.42,5.91-5.91,1.46-2.49,2.2-5.2,2.2-8.13s-.73-5.62-2.2-8.08c-1.47-2.45-3.44-4.4-5.91-5.83-2.47-1.43-5.16-2.14-8.05-2.14s-5.64.71-8.13,2.14Z"/>
      <path class="cls-2" d="M782.36,168.04l-8.3-12.53c-1.17.07-2.07.11-2.69.11h-10.55v12.42h-3.79v-38.42h14.34c4.8,0,8.51,1.11,11.13,3.33,2.62,2.22,3.93,5.36,3.93,9.43,0,3.19-.77,5.84-2.31,7.97-1.54,2.12-3.74,3.61-6.6,4.45l9.23,13.25h-4.4ZM771.36,152.21c3.66,0,6.49-.83,8.46-2.5,1.98-1.67,2.97-4.08,2.97-7.23s-.99-5.42-2.97-7.04c-1.98-1.61-4.8-2.42-8.46-2.42h-10.55v19.18h10.55Z"/>
      <path class="cls-2" d="M822.09,168.04l-8.3-12.53c-1.17.07-2.07.11-2.69.11h-10.55v12.42h-3.79v-38.42h14.34c4.8,0,8.51,1.11,11.13,3.33,2.62,2.22,3.93,5.36,3.93,9.43,0,3.19-.77,5.84-2.31,7.97-1.54,2.12-3.74,3.61-6.6,4.45l9.23,13.25h-4.4ZM811.1,152.21c3.66,0,6.49-.83,8.46-2.5,1.98-1.67,2.97-4.08,2.97-7.23s-.99-5.42-2.97-7.04-4.8-2.42-8.46-2.42h-10.55v19.18h10.55Z"/>
      <path class="cls-2" d="M836.49,129.62h25.72v3.41h-21.93v13.74h19.62v3.41h-19.62v14.46h22.64v3.41h-26.44v-38.42Z"/>
      <path class="cls-2" d="M894.81,133.91c-2.02-.84-4.1-1.26-6.27-1.26-2.97,0-5.69.71-8.16,2.14-2.47,1.43-4.43,3.38-5.88,5.85-1.45,2.47-2.17,5.18-2.17,8.11s.72,5.62,2.17,8.08c1.45,2.46,3.41,4.41,5.88,5.85,2.47,1.45,5.19,2.17,8.16,2.17,2.12,0,4.2-.41,6.21-1.24,2.01-.82,3.81-1.97,5.39-3.43l2.31,2.47c-1.91,1.76-4.09,3.15-6.54,4.18-2.46,1.03-4.97,1.54-7.53,1.54-3.63,0-6.96-.88-10-2.64-3.04-1.76-5.45-4.14-7.23-7.14-1.78-3-2.67-6.28-2.67-9.84s.9-6.82,2.69-9.78c1.79-2.97,4.22-5.32,7.28-7.06,3.06-1.74,6.4-2.61,10.03-2.61,2.6,0,5.11.49,7.53,1.46,2.42.97,4.54,2.32,6.38,4.04l-2.25,2.64c-1.54-1.5-3.32-2.67-5.33-3.52Z"/>
      <path class="cls-2" d="M932.34,133.91c-2.02-.84-4.1-1.26-6.27-1.26-2.97,0-5.69.71-8.16,2.14-2.47,1.43-4.43,3.38-5.88,5.85-1.45,2.47-2.17,5.18-2.17,8.11s.72,5.62,2.17,8.08c1.45,2.46,3.41,4.41,5.88,5.85,2.47,1.45,5.19,2.17,8.16,2.17,2.12,0,4.2-.41,6.21-1.24,2.01-.82,3.81-1.97,5.39-3.43l2.31,2.47c-1.91,1.76-4.09,3.15-6.54,4.18-2.46,1.03-4.97,1.54-7.53,1.54-3.63,0-6.96-.88-10-2.64-3.04-1.76-5.45-4.14-7.23-7.14-1.78-3-2.67-6.28-2.67-9.84s.9-6.82,2.69-9.78c1.79-2.97,4.22-5.32,7.28-7.06,3.06-1.74,6.4-2.61,10.03-2.61,2.6,0,5.11.49,7.53,1.46,2.42.97,4.54,2.32,6.38,4.04l-2.25,2.64c-1.54-1.5-3.32-2.67-5.33-3.52Z"/>
      <path class="cls-2" d="M948.28,129.62h3.79v38.42h-3.79v-38.42Z"/>
      <path class="cls-2" d="M990.58,131.91c3.06,1.74,5.49,4.09,7.28,7.06,1.79,2.97,2.69,6.23,2.69,9.78s-.9,6.83-2.69,9.84c-1.8,3-4.22,5.39-7.28,7.14-3.06,1.76-6.42,2.64-10.09,2.64s-7.03-.88-10.08-2.64c-3.06-1.76-5.49-4.14-7.28-7.14-1.8-3-2.69-6.28-2.69-9.84s.9-6.82,2.69-9.78c1.79-2.97,4.22-5.32,7.28-7.06,3.06-1.74,6.42-2.61,10.08-2.61s7.03.87,10.09,2.61ZM972.41,134.85c-2.49,1.43-4.47,3.37-5.94,5.83-1.47,2.46-2.2,5.15-2.2,8.08s.73,5.64,2.2,8.13c1.46,2.49,3.44,4.46,5.94,5.91,2.49,1.45,5.2,2.17,8.13,2.17s5.58-.72,8.05-2.17c2.47-1.45,4.44-3.42,5.91-5.91,1.46-2.49,2.2-5.2,2.2-8.13s-.73-5.62-2.2-8.08c-1.47-2.45-3.44-4.4-5.91-5.83-2.47-1.43-5.16-2.14-8.05-2.14s-5.64.71-8.13,2.14ZM984.56,118.74l3.79,1.65-6.92,5.5-3.3-.38,6.43-6.76Z"/>
      <path class="cls-2" d="M1036.77,129.62h3.74v38.42h-4.01l-23.8-32.54v32.54h-3.79v-38.42h4.01l23.85,32.54v-32.54Z"/>
      <path class="cls-1" d="M372.32,148.33c0-7.06-5.72-12.78-12.78-12.78s-12.78,5.72-12.78,12.78,5.72,12.78,12.78,12.78,12.78-5.72,12.78-12.78Z"/>
      <path class="cls-1" d="M658.41,148.33c0-7.06-5.72-12.78-12.78-12.78s-12.78,5.72-12.78,12.78,5.72,12.78,12.78,12.78,12.78-5.72,12.78-12.78Z"/>
      <path class="cls-1" d="M71.86,92H0V2.18h70.06v21.3H25.02v12.83h42.47v20.66H25.02v13.6h46.83v21.43Z"/>
      <path class="cls-1" d="M162.06,27.07c-3.08-2.31-6.37-3.91-9.88-4.81-3.51-.9-7.23-1.35-11.16-1.35-1.54,0-3.04.13-4.49.38-1.46.26-2.76.64-3.91,1.15-1.15.51-2.08,1.2-2.76,2.05-.69.86-1.03,1.88-1.03,3.08,0,1.54.36,2.78,1.09,3.72.73.94,1.73,1.69,3.02,2.25,1.28.56,2.84.96,4.68,1.22,1.84.26,3.87.51,6.1.77,4.45.51,8.85,1.37,13.21,2.57,4.36,1.2,8.26,2.95,11.68,5.26,3.42,2.31,6.2,5.26,8.34,8.85,2.14,3.59,3.21,7.96,3.21,13.09s-1.11,9.54-3.34,13.22c-2.22,3.68-5.15,6.69-8.79,9.05-3.64,2.35-7.83,4.11-12.57,5.26-4.75,1.16-9.65,1.73-14.69,1.73-4.02,0-7.81-.19-11.36-.58-3.55-.39-6.93-1.16-10.14-2.31-3.21-1.16-6.35-2.78-9.43-4.88-3.08-2.1-6.16-4.77-9.24-8.02l13.99-16.04c2.22,2.14,4.49,3.87,6.8,5.2,2.31,1.33,4.6,2.35,6.86,3.08,2.27.73,4.47,1.22,6.61,1.48,2.14.26,4.15.39,6.03.39,4.19,0,7.59-.71,10.2-2.12,2.61-1.41,3.91-3.36,3.91-5.84,0-4.53-5-7.27-15.01-8.21-4.88-.43-9.54-1.15-13.99-2.18-4.45-1.03-8.34-2.59-11.68-4.68-3.34-2.1-5.99-4.94-7.95-8.53-1.97-3.59-2.95-8.17-2.95-13.73,0-4.7,1.07-8.79,3.21-12.25,2.14-3.46,4.96-6.29,8.47-8.47,3.51-2.18,7.51-3.8,12-4.88,4.49-1.07,9.13-1.6,13.92-1.6,6.76,0,12.83.81,18.22,2.44,5.39,1.63,10.52,4.36,15.4,8.21l-12.58,16.04Z"/>
      <path class="cls-1" d="M230.83,23.1h-26.18V2.18h77.76v20.91h-26.3v68.9h-25.28V23.1Z"/>
      <path class="cls-1" d="M397.38,2.31v50.17c0,6.67-.96,12.58-2.89,17.71-1.92,5.13-4.73,9.45-8.41,12.96-3.68,3.51-8.13,6.18-13.34,8.02-5.22,1.84-11.12,2.76-17.71,2.76s-12.49-.88-17.71-2.63c-5.22-1.75-9.67-4.38-13.34-7.89-3.68-3.51-6.48-7.87-8.41-13.09-1.92-5.22-2.89-11.25-2.89-18.09V2.31h25.28v49.91c0,7.1,1.56,12.21,4.68,15.33,3.12,3.12,7.25,4.68,12.38,4.68s9.26-1.58,12.38-4.75c3.12-3.16,4.68-8.17,4.68-15.01V2.31h25.28Z"/>
      <path class="cls-1" d="M473.34,2.18c7.96,0,14.86,1.15,20.72,3.46,5.86,2.31,10.73,5.45,14.63,9.43,3.89,3.98,6.8,8.66,8.72,14.05,1.92,5.39,2.89,11.16,2.89,17.32s-.94,12-2.82,17.51c-1.88,5.52-4.75,10.35-8.6,14.5-3.85,4.15-8.72,7.44-14.63,9.88-5.9,2.44-12.88,3.66-20.92,3.66h-38.49V2.18h38.49ZM460,70.57h13.34c4.02,0,7.42-.68,10.2-2.05,2.78-1.37,5.03-3.21,6.74-5.52,1.71-2.31,2.95-4.92,3.72-7.83.77-2.91,1.16-5.9,1.16-8.98s-.41-6.01-1.22-8.79c-.81-2.78-2.1-5.2-3.85-7.25-1.75-2.05-4.02-3.7-6.8-4.94-2.78-1.24-6.1-1.86-9.94-1.86h-13.34v47.22Z"/>
      <path class="cls-1" d="M554.31,92V2.18h25.28v89.82h-25.28Z"/>
      <path class="cls-1" d="M713.16,47.09c0,7.53-1.22,14.2-3.66,20.02-2.44,5.82-5.86,10.74-10.26,14.76-4.41,4.02-9.67,7.08-15.78,9.17-6.12,2.09-12.85,3.14-20.21,3.14s-14.09-1.05-20.21-3.14c-6.12-2.1-11.38-5.15-15.78-9.17-4.41-4.02-7.83-8.94-10.27-14.76-2.44-5.82-3.66-12.49-3.66-20.02s1.22-13.94,3.66-19.76c2.44-5.82,5.86-10.76,10.27-14.82,4.4-4.06,9.66-7.16,15.78-9.3,6.11-2.14,12.85-3.21,20.21-3.21s14.09,1.05,20.21,3.14c6.12,2.1,11.38,5.15,15.78,9.17,4.4,4.02,7.83,8.96,10.26,14.82,2.44,5.86,3.66,12.51,3.66,19.95ZM687.75,47.09c0-7.78-2.2-13.96-6.61-18.54-4.41-4.58-10.37-6.87-17.9-6.87-3.59,0-6.91.62-9.94,1.86-3.04,1.24-5.63,3-7.76,5.26-2.14,2.27-3.81,4.96-5,8.08-1.2,3.12-1.8,6.52-1.8,10.2s.6,7.21,1.8,10.33c1.2,3.12,2.89,5.8,5.07,8.02,2.18,2.23,4.77,3.96,7.76,5.2,2.99,1.24,6.29,1.86,9.88,1.86s7.04-.62,10.07-1.86c3.04-1.24,5.62-2.99,7.76-5.26,2.14-2.27,3.79-4.94,4.94-8.02,1.16-3.08,1.73-6.5,1.73-10.26Z"/>
      <path class="cls-2" d="M830.05,92h-27.97l-20.91-29.13h-8.85v29.13h-25.41V2.18h43.88c5.73,0,10.78.86,15.14,2.57,4.36,1.71,8,4,10.91,6.87,2.91,2.87,5.11,6.16,6.61,9.88,1.5,3.72,2.25,7.59,2.25,11.61,0,2.74-.28,5.39-.83,7.96-.56,2.57-1.54,4.98-2.95,7.25-1.41,2.27-3.36,4.41-5.84,6.42-2.48,2.01-5.6,3.83-9.37,5.45l23.35,30.28v1.54ZM772.31,22.45v21.56h18.73c3.34,0,5.77-1.05,7.31-3.14,1.54-2.09,2.31-4.51,2.31-7.25s-.81-5.39-2.44-7.7c-1.63-2.31-4.11-3.46-7.44-3.46h-18.48Z"/>
      <path class="cls-2" d="M933.85,92h-71.85V2.18h70.06v21.3h-45.04v12.83h42.47v20.66h-42.47v13.6h46.83v21.43Z"/>
      <path class="cls-2" d="M1049.08,80.32c-5.13,5.05-10.71,8.64-16.74,10.78-6.03,2.14-12.47,3.21-19.31,3.21-8.81,0-16.32-1.28-22.52-3.85-6.2-2.57-11.27-5.99-15.21-10.26-3.94-4.28-6.82-9.24-8.66-14.88-1.84-5.65-2.76-11.5-2.76-17.58,0-5.73.96-11.44,2.89-17.13,1.92-5.69,4.92-10.8,8.98-15.33,4.06-4.53,9.17-8.19,15.33-10.97,6.16-2.78,13.47-4.17,21.94-4.17,6.5,0,12.64,1.16,18.41,3.46,5.77,2.31,11.23,5.95,16.36,10.91l-15.65,15.4c-3.25-3.08-6.5-5.15-9.75-6.22-3.25-1.07-6.37-1.6-9.37-1.6-4.36,0-8.06.79-11.1,2.37-3.04,1.58-5.52,3.64-7.44,6.16-1.92,2.52-3.32,5.3-4.17,8.34-.86,3.04-1.28,6.01-1.28,8.92s.43,5.84,1.28,8.79c.85,2.95,2.22,5.63,4.11,8.02,1.88,2.4,4.34,4.34,7.38,5.84,3.04,1.5,6.78,2.25,11.23,2.25,1.54,0,3.21-.17,5-.51,1.8-.34,3.61-.88,5.45-1.6,1.84-.73,3.68-1.67,5.52-2.82,1.84-1.16,3.57-2.55,5.2-4.17l14.88,16.68Z"/>
    </g>
  </g>
</svg>